# xmcd
#
# Track frame offsets: 
#        150
#        18388
#        44591
#        59170
#        86433
#        100552
#        118474
#        136132
#        154058
#        167512
#        190390
#
# Disc length: 2814 seconds
#
# Revision: 2
# Processed by: cddbd v1.5.2PL0 Copyright (c) Steve Scherf et al.
# Submitted via: ExactAudioCopyFreeDBPlugin 1.0
#
DISCID=930afc0b
DTITLE=Various Artist - Kammgarn - International Blues Festival (2010)
DYEAR=2010
DGENRE=Blues
TTITLE0=Michael Hill's Blues Mob - U.S. Blues Again
TTITLE1=Popa Chubby - We Got Something Rocking To Do
TTITLE2=Jimmy Bowskill - Walk In My Shadows
TTITLE3=Kellie Rucker - Mississippi Rain
TTITLE4=Stoppok Plus Worthy - Besser Mal Geh'n
TTITLE5=Joe Louis Walker - I'm Tide
TTITLE6=Vdelli - Into The Zone
TTITLE7=Eric Bibb - New Home
TTITLE8=Kellie Rucker - Talk To Me
TTITLE9=The Brew - A Million Dead Stars
TTITLE10=Michael Hill - Tonight
EXTD=
EXTT0=
EXTT1=
EXTT2=
EXTT3=
EXTT4=
EXTT5=
EXTT6=
EXTT7=
EXTT8=
EXTT9=
EXTT10=
PLAYORDER=
